<?xml version="1.0" encoding="UTF-8"?>
<svg id="Layer_2" data-name="Layer 2" xmlns="http://www.w3.org/2000/svg" viewBox="0 0 380.15 329.69">
  <defs>
    <style>
      .cls-1 {
        fill: #514b24;
      }
    </style>
  </defs>
  <g id="Layer_4" data-name="Layer 4">
    <path class="cls-1" d="M377.59,314.08l-24.27-7.34c-3.04-.92-5.12-3.72-5.12-6.9v-139.89c0-3.98-3.22-7.2-7.2-7.2h-28.13c-3.22,0-6.06,2.14-6.93,5.25l-8.47,30.14c-.43,1.55-1.85,2.62-3.46,2.62h-6.55c-2.35,0-4.08-2.23-3.48-4.51l6.4-24.51c1.19-4.56-2.25-9.02-6.97-9.02h-47.16c-2.9,0-5.51,1.73-6.64,4.39l-25.93,61.29c-1.12,2.66-3.74,4.39-6.63,4.39h-19.53c-11.93,0-21.6-9.67-21.6-21.6v-40.54c0-1.59,1.29-2.88,2.88-2.88h.98c1.19,0,2.26.73,2.69,1.84l6.25,16.17c1.08,2.77,3.75,4.6,6.72,4.6h28.5c5.12,0,8.6-5.19,6.67-9.92l-16.44-40.23s-4.88-9.47,11.99-10.16c7.64-.32,12.94-.16,15.69.83,3.84,1.39,3.76,5.17-.05,4.06-4.7-1.37-8.15,3.09-8.44,5.73-1.44,13.12,23.02,13.56,22.61-4.62-.21-9.24.63-12-3.51-15.13-3.63-2.74-8.17-2.71-18.8-2.43-5.17.14-9.32-.07-9.32-.07h-71.57c-3.02,0-5.72,1.88-6.76,4.71l-19.3,52.36c-1.04,2.83-3.74,4.71-6.76,4.71h-31.78c-11.93,0-21.6-9.67-21.6-21.6v-34.59c0-11.93,9.67-21.6,21.6-21.6h145.71c11.93,0,21.6-9.67,21.6-21.6V3.6c0-1.99-1.61-3.6-3.6-3.6h-5.51c-2.15,0-3.88,1.73-3.88,3.87,0,2.89.01,5.67.02,8.35.01,1.99-.77,3.89-2.19,5.31l-.08.07c-2.57,2.57-6.06,4.01-9.69,4l-13.98-.1c-3.54,0-6.9-1.54-9.22-4.22l-.06-.08c-1.07-1.23-1.66-2.81-1.65-4.44V4.39c.01-2.02-1.63-3.66-3.65-3.66h-5.21c-2.06,0-3.72,1.67-3.72,3.73v15.15c0,1.47-1.2,2.67-2.67,2.67h-.46c-1.45,0-2.62-1.18-2.62-2.63V4.66c0-2.07-1.68-3.74-3.75-3.74h-5.53c-1.99,0-3.6,1.61-3.6,3.59v15.59c0,1.4-1.14,2.54-2.54,2.54h-1.02c-1.46,0-2.64-1.18-2.64-2.64V4.68c0-1.98-1.61-3.58-3.59-3.58h-6.12c-1.11,0-2.1.55-2.7,1.39-.4.54-.63,1.21-.63,1.94v22.48c0,3.19,2.57,5.76,5.76,5.76h40.98c6.38,0,11.55,5.19,11.52,11.58l-.03,6.98c0,3.18-2.59,5.74-5.76,5.74H21.6c-11.93,0-21.6,9.67-21.6,21.6v109.55c0,11.93,9.67,21.6,21.6,21.6h58.96c2.01,0,3.63,1.64,3.6,3.65l-.26,16.39c-.03,1.97-1.64,3.54-3.6,3.54H23.83c-10.65,0-17.62,11.16-12.94,20.73l21.52,44.04c1.98,4.04-.2,8.88-4.53,10.09l-20.87,5.83c-1.55.44-2.63,1.85-2.63,3.47v8.38c0,1.98,1.61,3.6,3.6,3.6h93.83c2.8,0,4.53-3.06,3.09-5.46l-22.55-37.63c-2.87-4.8.59-10.9,6.18-10.9h55.47c5.15,0,8.63,5.25,6.63,10l-16.44,38.99c-1,2.37.75,5,3.32,5l60.85.25c1.46,0,2.78-.88,3.33-2.23l20.3-49.35c.55-1.35,1.87-2.24,3.32-2.24h9.58c2.48,0,4.22,2.46,3.39,4.8l-15.58,44.23c-.83,2.34.91,4.79,3.39,4.79l50.11-.25c1.53,0,2.9-.98,3.4-2.43l11.14-32.15c.51-1.45,1.87-2.42,3.4-2.42h7.79c2.37,0,4.09,2.23,3.49,4.52l-7.41,27.95c-.6,2.29,1.12,4.53,3.48,4.53h75.07c1.99,0,3.6-1.62,3.6-3.6v-8.31c0-1.59-1.04-2.99-2.56-3.45ZM155.67,130.39c0-1.79,1.45-3.24,3.24-3.24h11.59c1.31,0,2.5.79,3,2.01l2.19,5.33c.87,2.14-.69,4.48-3,4.48h-13.78c-1.79,0-3.24-1.45-3.24-3.24v-5.34Z"/>
  </g>
</svg>